<svg xmlns="http://www.w3.org/2000/svg" width="96" height="96" viewBox="0 0 48 48"><circle cx="24" cy="24" r="23" fill="#fff"/><circle cx="24" cy="24" r="20.4" fill="none" stroke="#ddd" stroke-width="2.15"/><circle cx="24" cy="24" r="20.4" fill="none" stroke="#242424" stroke-width="2.15" stroke-linecap="round" pathLength="100" stroke-dasharray="75 25" transform="rotate(-90 24 24)"/><path d="M11.4 10 C11.4 8.3 36.6 8.3 36.6 10 C36.6 15 25.5 20.5 25.5 24 C25.5 27.5 36.6 33 36.6 38 C36.6 39.7 11.4 39.7 11.4 38 C11.4 33 22.5 27.5 22.5 24 C22.5 20.5 11.4 15 11.4 10Z" fill="none" stroke="#242424" stroke-width="1.05"/><path d="M14 15H34L24 23Z M12.5 37L24 31L35.5 37Z" fill="#999"/></svg>
